<mxfile host="app.diagrams.net" agent="Mozilla/5.0 (Macintosh; Intel Mac OS X 10_15_7) AppleWebKit/605.1.15 (KHTML, like Gecko) Version/18.3 Safari/605.1.15" version="26.0.16" pages="4">
  <diagram id="C5RBs43oDa-KdzZeNtuy" name="Collection">
    <mxGraphModel dx="1194" dy="777" grid="1" gridSize="10" guides="1" tooltips="1" connect="1" arrows="1" fold="1" page="1" pageScale="1" pageWidth="827" pageHeight="1169" math="0" shadow="0">
      <root>
        <mxCell id="WIyWlLk6GJQsqaUBKTNV-0" />
        <mxCell id="WIyWlLk6GJQsqaUBKTNV-1" parent="WIyWlLk6GJQsqaUBKTNV-0" />
        <mxCell id="t_siYUt48UW-tecDmQAx-3" value="" style="edgeStyle=none;curved=1;rounded=0;orthogonalLoop=1;jettySize=auto;html=1;fontSize=12;startSize=8;endSize=8;" edge="1" parent="WIyWlLk6GJQsqaUBKTNV-1" source="t_siYUt48UW-tecDmQAx-1" target="t_siYUt48UW-tecDmQAx-2">
          <mxGeometry relative="1" as="geometry" />
        </mxCell>
        <mxCell id="t_siYUt48UW-tecDmQAx-1" value="Start" style="rounded=1;whiteSpace=wrap;html=1;" vertex="1" parent="WIyWlLk6GJQsqaUBKTNV-1">
          <mxGeometry x="90" y="150" width="100" height="40" as="geometry" />
        </mxCell>
        <mxCell id="t_siYUt48UW-tecDmQAx-7" value="" style="edgeStyle=none;curved=1;rounded=0;orthogonalLoop=1;jettySize=auto;html=1;fontSize=12;startSize=8;endSize=8;" edge="1" parent="WIyWlLk6GJQsqaUBKTNV-1" source="t_siYUt48UW-tecDmQAx-2" target="t_siYUt48UW-tecDmQAx-6">
          <mxGeometry relative="1" as="geometry" />
        </mxCell>
        <mxCell id="t_siYUt48UW-tecDmQAx-40" value="" style="edgeStyle=none;curved=1;rounded=0;orthogonalLoop=1;jettySize=auto;html=1;fontSize=12;startSize=8;endSize=8;" edge="1" parent="WIyWlLk6GJQsqaUBKTNV-1" source="t_siYUt48UW-tecDmQAx-2" target="t_siYUt48UW-tecDmQAx-39">
          <mxGeometry relative="1" as="geometry" />
        </mxCell>
        <mxCell id="t_siYUt48UW-tecDmQAx-2" value="Identifikasi Bukti Digital" style="shape=parallelogram;perimeter=parallelogramPerimeter;whiteSpace=wrap;html=1;fixedSize=1;rounded=1;size=20;arcSize=0;" vertex="1" parent="WIyWlLk6GJQsqaUBKTNV-1">
          <mxGeometry x="80" y="215" width="120" height="60" as="geometry" />
        </mxCell>
        <mxCell id="t_siYUt48UW-tecDmQAx-9" value="" style="edgeStyle=none;curved=1;rounded=0;orthogonalLoop=1;jettySize=auto;html=1;fontSize=12;startSize=8;endSize=8;" edge="1" parent="WIyWlLk6GJQsqaUBKTNV-1" source="t_siYUt48UW-tecDmQAx-6" target="t_siYUt48UW-tecDmQAx-8">
          <mxGeometry relative="1" as="geometry" />
        </mxCell>
        <mxCell id="t_siYUt48UW-tecDmQAx-6" value="Tahapan Pengambilan Bukti Digital" style="rounded=1;whiteSpace=wrap;html=1;arcSize=0;" vertex="1" parent="WIyWlLk6GJQsqaUBKTNV-1">
          <mxGeometry x="80" y="300" width="120" height="60" as="geometry" />
        </mxCell>
        <mxCell id="t_siYUt48UW-tecDmQAx-11" value="" style="edgeStyle=none;curved=1;rounded=0;orthogonalLoop=1;jettySize=auto;html=1;fontSize=12;startSize=8;endSize=8;" edge="1" parent="WIyWlLk6GJQsqaUBKTNV-1" source="t_siYUt48UW-tecDmQAx-8" target="t_siYUt48UW-tecDmQAx-10">
          <mxGeometry relative="1" as="geometry" />
        </mxCell>
        <mxCell id="t_siYUt48UW-tecDmQAx-8" value="Akuisisi" style="rounded=1;whiteSpace=wrap;html=1;arcSize=0;" vertex="1" parent="WIyWlLk6GJQsqaUBKTNV-1">
          <mxGeometry x="80" y="380" width="120" height="60" as="geometry" />
        </mxCell>
        <mxCell id="t_siYUt48UW-tecDmQAx-13" value="" style="edgeStyle=none;curved=1;rounded=0;orthogonalLoop=1;jettySize=auto;html=1;fontSize=12;startSize=8;endSize=8;" edge="1" parent="WIyWlLk6GJQsqaUBKTNV-1" source="t_siYUt48UW-tecDmQAx-10" target="t_siYUt48UW-tecDmQAx-12">
          <mxGeometry relative="1" as="geometry" />
        </mxCell>
        <mxCell id="t_siYUt48UW-tecDmQAx-38" value="Yes" style="edgeLabel;html=1;align=center;verticalAlign=middle;resizable=0;points=[];fontSize=12;" vertex="1" connectable="0" parent="t_siYUt48UW-tecDmQAx-13">
          <mxGeometry x="-0.08" y="-1" relative="1" as="geometry">
            <mxPoint as="offset" />
          </mxGeometry>
        </mxCell>
        <mxCell id="t_siYUt48UW-tecDmQAx-15" value="" style="edgeStyle=none;curved=1;rounded=0;orthogonalLoop=1;jettySize=auto;html=1;fontSize=12;startSize=8;endSize=8;" edge="1" parent="WIyWlLk6GJQsqaUBKTNV-1" source="t_siYUt48UW-tecDmQAx-10" target="t_siYUt48UW-tecDmQAx-14">
          <mxGeometry relative="1" as="geometry" />
        </mxCell>
        <mxCell id="t_siYUt48UW-tecDmQAx-37" value="No" style="edgeLabel;html=1;align=center;verticalAlign=middle;resizable=0;points=[];fontSize=12;" vertex="1" connectable="0" parent="t_siYUt48UW-tecDmQAx-15">
          <mxGeometry x="-0.28" y="1" relative="1" as="geometry">
            <mxPoint as="offset" />
          </mxGeometry>
        </mxCell>
        <mxCell id="t_siYUt48UW-tecDmQAx-10" value="Bisa dilakukan secara Live-acquisition" style="rhombus;whiteSpace=wrap;html=1;rounded=1;arcSize=0;" vertex="1" parent="WIyWlLk6GJQsqaUBKTNV-1">
          <mxGeometry x="85" y="460" width="110" height="110" as="geometry" />
        </mxCell>
        <mxCell id="t_siYUt48UW-tecDmQAx-35" style="edgeStyle=orthogonalEdgeStyle;rounded=0;orthogonalLoop=1;jettySize=auto;html=1;entryX=1;entryY=0.5;entryDx=0;entryDy=0;fontSize=12;startSize=8;endSize=8;" edge="1" parent="WIyWlLk6GJQsqaUBKTNV-1" source="t_siYUt48UW-tecDmQAx-12" target="t_siYUt48UW-tecDmQAx-33">
          <mxGeometry relative="1" as="geometry">
            <Array as="points">
              <mxPoint x="340" y="740" />
            </Array>
          </mxGeometry>
        </mxCell>
        <mxCell id="t_siYUt48UW-tecDmQAx-12" value="Tahapan akuisisi secara Live Acquisition" style="rounded=1;whiteSpace=wrap;html=1;arcSize=0;" vertex="1" parent="WIyWlLk6GJQsqaUBKTNV-1">
          <mxGeometry x="280" y="485" width="120" height="60" as="geometry" />
        </mxCell>
        <mxCell id="t_siYUt48UW-tecDmQAx-34" value="" style="edgeStyle=none;curved=1;rounded=0;orthogonalLoop=1;jettySize=auto;html=1;fontSize=12;startSize=8;endSize=8;" edge="1" parent="WIyWlLk6GJQsqaUBKTNV-1" source="t_siYUt48UW-tecDmQAx-14" target="t_siYUt48UW-tecDmQAx-33">
          <mxGeometry relative="1" as="geometry" />
        </mxCell>
        <mxCell id="t_siYUt48UW-tecDmQAx-14" value="Tahapan akuisisi secara Dead/Offline Acquisition" style="whiteSpace=wrap;html=1;rounded=1;arcSize=0;" vertex="1" parent="WIyWlLk6GJQsqaUBKTNV-1">
          <mxGeometry x="80" y="620" width="120" height="60" as="geometry" />
        </mxCell>
        <mxCell id="t_siYUt48UW-tecDmQAx-31" value="" style="edgeStyle=none;curved=1;rounded=0;orthogonalLoop=1;jettySize=auto;html=1;fontSize=12;startSize=8;endSize=8;" edge="1" parent="WIyWlLk6GJQsqaUBKTNV-1" source="t_siYUt48UW-tecDmQAx-26" target="t_siYUt48UW-tecDmQAx-30">
          <mxGeometry relative="1" as="geometry" />
        </mxCell>
        <mxCell id="t_siYUt48UW-tecDmQAx-26" value="Preservation" style="rounded=1;whiteSpace=wrap;html=1;arcSize=0;" vertex="1" parent="WIyWlLk6GJQsqaUBKTNV-1">
          <mxGeometry x="80" y="800" width="120" height="60" as="geometry" />
        </mxCell>
        <mxCell id="t_siYUt48UW-tecDmQAx-30" value="Chain of Custody" style="shape=document;whiteSpace=wrap;html=1;boundedLbl=1;rounded=1;arcSize=0;" vertex="1" parent="WIyWlLk6GJQsqaUBKTNV-1">
          <mxGeometry x="280" y="795" width="120" height="70" as="geometry" />
        </mxCell>
        <mxCell id="t_siYUt48UW-tecDmQAx-36" style="edgeStyle=none;curved=1;rounded=0;orthogonalLoop=1;jettySize=auto;html=1;entryX=0.5;entryY=0;entryDx=0;entryDy=0;fontSize=12;startSize=8;endSize=8;" edge="1" parent="WIyWlLk6GJQsqaUBKTNV-1" source="t_siYUt48UW-tecDmQAx-33" target="t_siYUt48UW-tecDmQAx-26">
          <mxGeometry relative="1" as="geometry" />
        </mxCell>
        <mxCell id="t_siYUt48UW-tecDmQAx-33" value="Bukti Digital" style="shape=parallelogram;perimeter=parallelogramPerimeter;whiteSpace=wrap;html=1;fixedSize=1;rounded=1;arcSize=0;" vertex="1" parent="WIyWlLk6GJQsqaUBKTNV-1">
          <mxGeometry x="80" y="710" width="120" height="60" as="geometry" />
        </mxCell>
        <mxCell id="t_siYUt48UW-tecDmQAx-39" value="Log activity investigasi forensik digital" style="shape=document;whiteSpace=wrap;html=1;boundedLbl=1;rounded=1;" vertex="1" parent="WIyWlLk6GJQsqaUBKTNV-1">
          <mxGeometry x="280" y="210" width="120" height="70" as="geometry" />
        </mxCell>
      </root>
    </mxGraphModel>
  </diagram>
  <diagram id="TwgPNCt6xu_8tkg0PEDv" name="Examination">
    <mxGraphModel dx="968" dy="605" grid="0" gridSize="10" guides="1" tooltips="1" connect="1" arrows="1" fold="1" page="0" pageScale="1" pageWidth="827" pageHeight="1169" math="0" shadow="0">
      <root>
        <mxCell id="0" />
        <mxCell id="1" parent="0" />
      </root>
    </mxGraphModel>
  </diagram>
  <diagram id="eRlR4t-ZQVe2Cz5ex6hm" name="Analysis">
    <mxGraphModel dx="968" dy="605" grid="0" gridSize="10" guides="1" tooltips="1" connect="1" arrows="1" fold="1" page="0" pageScale="1" pageWidth="827" pageHeight="1169" math="0" shadow="0">
      <root>
        <mxCell id="0" />
        <mxCell id="1" parent="0" />
      </root>
    </mxGraphModel>
  </diagram>
  <diagram id="O2brfD1u4VczVAhQ_p-K" name="Reporting">
    <mxGraphModel dx="968" dy="605" grid="0" gridSize="10" guides="1" tooltips="1" connect="1" arrows="1" fold="1" page="0" pageScale="1" pageWidth="827" pageHeight="1169" math="0" shadow="0">
      <root>
        <mxCell id="0" />
        <mxCell id="1" parent="0" />
      </root>
    </mxGraphModel>
  </diagram>
</mxfile>
